<svg width="37.000000" height="37.000000" viewBox="0 0 37 37" fill="none" xmlns="http://www.w3.org/2000/svg" xmlns:xlink="http://www.w3.org/1999/xlink">
	<desc>
			Created with Pixso.
	</desc>
	<defs/>
	<path id="Vector" d="M35.15 -0.98L1.84 -0.98C0.82 -0.98 0 -0.15 0 0.87L0 23.07C0 24.09 0.82 24.92 1.84 24.92L12.33 24.92C14.03 24.92 15.41 26.3 15.41 28C15.41 29.71 14.03 31.09 12.33 31.09C12.32 31.09 12.31 31.09 12.3 31.09C12.26 31.1 12.22 31.11 12.17 31.12C12.14 31.13 12.1 31.14 12.07 31.15C12.04 31.17 12 31.19 11.97 31.22C11.94 31.24 11.91 31.26 11.88 31.29C11.86 31.31 11.84 31.34 11.82 31.37C11.79 31.41 11.77 31.45 11.75 31.49C11.75 31.5 11.74 31.5 11.74 31.51L10.51 35.21C10.4 35.53 10.58 35.88 10.9 35.99C10.96 36.01 11.03 36.02 11.1 36.02L25.9 36.02C26.24 36.02 26.51 35.75 26.51 35.4C26.51 35.34 26.5 35.27 26.48 35.21L25.25 31.51C25.25 31.5 25.24 31.5 25.24 31.49C25.22 31.45 25.2 31.41 25.17 31.37C25.15 31.34 25.13 31.31 25.11 31.29C25.08 31.26 25.05 31.24 25.02 31.22C24.99 31.19 24.95 31.17 24.92 31.15C24.88 31.14 24.85 31.13 24.82 31.12C24.77 31.11 24.73 31.1 24.68 31.09C24.68 31.09 24.67 31.09 24.66 31.09C22.96 31.09 21.58 29.71 21.58 28C21.58 26.3 22.96 24.92 24.66 24.92L35.15 24.92C36.17 24.92 36.99 24.09 36.99 23.07L36.99 0.87C36.99 -0.15 36.17 -0.98 35.15 -0.98ZM20.35 28C20.35 30.21 22.01 32.06 24.21 32.3L25.04 34.79L11.95 34.79L12.78 32.3C14.98 32.06 16.64 30.21 16.65 28C16.65 26.84 16.18 25.73 15.34 24.92L21.65 24.92C20.81 25.73 20.34 26.84 20.35 28ZM35.76 23.07C35.76 23.41 35.49 23.69 35.15 23.69L1.84 23.69C1.5 23.69 1.23 23.41 1.23 23.07L1.23 21.22L35.76 21.22L35.76 23.07ZM1.23 19.99L1.23 0.87C1.23 0.53 1.5 0.25 1.84 0.25L35.15 0.25C35.49 0.25 35.76 0.53 35.76 0.87L35.76 19.99L1.23 19.99Z" fill="#95E1D3" fill-opacity="1.000000" fill-rule="nonzero"/>
	<path id="Vector" d="M26.09 8.3L24.31 7.71L25.15 6.04C25.27 5.8 25.22 5.51 25.04 5.33L23.29 3.58C23.1 3.39 22.82 3.35 22.58 3.47L20.9 4.3L20.31 2.53C20.23 2.27 19.99 2.11 19.73 2.1L17.26 2.1C17 2.1 16.76 2.27 16.68 2.53L16.09 4.3L14.41 3.47C14.17 3.35 13.89 3.39 13.7 3.58L11.95 5.33C11.77 5.51 11.72 5.8 11.84 6.04L12.68 7.71L10.9 8.3C10.65 8.39 10.48 8.62 10.48 8.89L10.48 11.35C10.48 11.62 10.65 11.86 10.9 11.94L12.68 12.53L11.84 14.21C11.72 14.44 11.77 14.73 11.95 14.92L13.7 16.66C13.89 16.85 14.17 16.9 14.41 16.78L16.09 15.94L16.68 17.72C16.76 17.97 17 18.14 17.26 18.14L19.73 18.14C19.99 18.14 20.23 17.97 20.31 17.72L20.91 15.94L22.58 16.78C22.82 16.9 23.1 16.85 23.29 16.66L25.04 14.92C25.22 14.73 25.27 14.44 25.15 14.21L24.31 12.53L26.09 11.94C26.34 11.86 26.51 11.62 26.51 11.35L26.51 8.89C26.51 8.62 26.34 8.39 26.09 8.3ZM25.28 10.91L23.25 11.59C22.93 11.7 22.75 12.05 22.86 12.37C22.87 12.4 22.88 12.42 22.89 12.45L23.85 14.36L22.73 15.48L20.82 14.52C20.52 14.37 20.15 14.49 19.99 14.79C19.98 14.82 19.97 14.85 19.96 14.88L19.28 16.9L17.71 16.9L17.03 14.88C16.92 14.55 16.57 14.38 16.25 14.49C16.22 14.5 16.19 14.51 16.17 14.52L14.26 15.48L13.14 14.36L14.1 12.45C14.25 12.14 14.13 11.77 13.82 11.62C13.79 11.61 13.77 11.6 13.74 11.59L11.71 10.91L11.71 9.33L13.74 8.65C14.06 8.55 14.24 8.2 14.13 7.87C14.12 7.85 14.11 7.82 14.1 7.79L13.14 5.88L14.26 4.77L16.17 5.72C16.47 5.88 16.84 5.75 16.99 5.45C17.01 5.42 17.02 5.39 17.03 5.37L17.71 3.34L19.28 3.34L19.96 5.37C20.07 5.69 20.42 5.87 20.74 5.76C20.77 5.75 20.8 5.74 20.83 5.72L22.74 4.77L23.85 5.88L22.9 7.79C22.74 8.1 22.87 8.47 23.17 8.62C23.2 8.63 23.23 8.65 23.25 8.65L25.28 9.33L25.28 10.91Z" fill="#95E1D3" fill-opacity="1.000000" fill-rule="nonzero"/>
	<path id="Vector" d="M18.5 6.42C16.45 6.42 14.8 8.08 14.8 10.12C14.8 12.16 16.45 13.82 18.5 13.82C20.54 13.82 22.2 12.16 22.2 10.12C22.19 8.08 20.54 6.42 18.5 6.42ZM18.5 12.59C17.13 12.59 16.03 11.48 16.03 10.12C16.03 8.76 17.13 7.65 18.5 7.65C19.86 7.65 20.96 8.76 20.96 10.12C20.96 11.48 19.86 12.59 18.5 12.59Z" fill="#95E1D3" fill-opacity="1.000000" fill-rule="nonzero"/>
</svg>
