<svg width="33.000000" height="37.000000" viewBox="0 0 33 37" fill="none" xmlns="http://www.w3.org/2000/svg" xmlns:xlink="http://www.w3.org/1999/xlink">
	<desc>
			Created with Pixso.
	</desc>
	<defs/>
	<path id="Vector" d="M32.46 9.78C32.26 9.58 31.96 9.52 31.7 9.61L26.76 11.42C26.67 11.46 26.58 11.51 26.5 11.59L25.11 12.98L16.05 3.92C15.92 3.78 15.74 3.7 15.54 3.7C15.35 3.7 15.17 3.78 15.03 3.92L4.13 14.82L1.46 14.82L15.54 0.74L23.27 8.47C23.55 8.75 24.01 8.75 24.29 8.47C24.58 8.19 24.58 7.73 24.29 7.45L16.06 -0.79C15.77 -1.08 15.32 -1.08 15.03 -0.79L-0.79 15.03C-1 15.24 -1.06 15.55 -0.95 15.82C-0.84 16.09 -0.57 16.27 -0.28 16.27L0.44 16.27L0.44 35.27C0.44 35.67 0.76 36 1.16 36L12.65 36C13.05 36 13.37 35.67 13.37 35.27C13.37 34.87 13.05 34.55 12.65 34.55L1.89 34.55L1.89 16.27L4.43 16.27C4.62 16.27 4.8 16.19 4.94 16.06L15.54 5.45L24.09 14L13.38 24.71L13.38 18.22L18.43 18.22C18.83 18.22 19.16 17.89 19.16 17.5C19.16 17.1 18.83 16.77 18.43 16.77L12.65 16.77C12.25 16.77 11.93 17.1 11.93 17.5L11.93 25.88C11.93 25.96 11.95 26.04 11.97 26.12L11.32 26.77C10.18 27.91 10.18 29.77 11.32 30.91C11.9 31.49 12.65 31.77 13.4 31.77C14.15 31.77 14.9 31.49 15.47 30.92L21.57 24.82C21.85 24.54 21.85 24.08 21.57 23.8C21.29 23.52 20.83 23.52 20.55 23.8L15.93 28.42L13.82 26.31L27.03 13.11L29.13 15.21L24.09 20.26C23.81 20.54 23.81 21 24.09 21.28C24.37 21.56 24.83 21.56 25.11 21.28L30.65 15.74C30.73 15.66 30.78 15.57 30.82 15.48L32.63 10.54C32.72 10.28 32.66 9.98 32.46 9.78ZM14.91 29.44L14.45 29.89C14.17 30.17 13.8 30.33 13.4 30.33C13 30.33 12.63 30.17 12.35 29.89C12.07 29.61 11.91 29.24 11.91 28.84C11.91 28.44 12.07 28.07 12.35 27.79L12.8 27.33L14.91 29.44ZM29.86 13.89L28.35 12.38L30.73 11.51L29.86 13.89Z" fill="#95E1D3" fill-opacity="1.000000" fill-rule="nonzero"/>
</svg>
