<svg width="35.000000" height="30.000000" viewBox="0 0 35 30" fill="none" xmlns="http://www.w3.org/2000/svg" xmlns:xlink="http://www.w3.org/1999/xlink">
	<desc>
			Created with Pixso.
	</desc>
	<defs/>
	<path id="Vector" d="M4.31 22.52C4.18 22.52 4.05 22.47 3.96 22.37C3.87 22.28 3.81 22.15 3.81 22.02L3.81 3.63C3.84 2.41 4.34 1.24 5.21 0.39C6.09 -0.46 7.27 -0.94 8.49 -0.93L29.82 -0.93C29.95 -0.93 30.08 -0.88 30.17 -0.79C30.26 -0.69 30.32 -0.56 30.32 -0.43C30.32 -0.3 30.26 -0.17 30.17 -0.08C30.08 0.02 29.95 0.07 29.82 0.07L8.49 0.07C7.53 0.06 6.61 0.43 5.92 1.1C5.23 1.77 4.83 2.68 4.81 3.64L4.81 22.02C4.81 22.15 4.76 22.28 4.67 22.37C4.57 22.47 4.45 22.52 4.31 22.52Z" fill="#95E1D3" fill-opacity="1.000000" fill-rule="nonzero"/>
	<path id="Vector" d="M28.77 8.42L25.65 8.42C25.51 8.42 25.39 8.37 25.29 8.27C25.2 8.18 25.15 8.05 25.15 7.92C25.15 7.79 25.2 7.66 25.29 7.56C25.39 7.47 25.51 7.42 25.65 7.42L27.69 7.42C27.49 7.05 27.38 6.65 27.35 6.24C27.33 5.82 27.39 5.41 27.54 5.02L25.65 5.02C25.51 5.02 25.39 4.97 25.29 4.88C25.2 4.78 25.15 4.65 25.15 4.52C25.15 4.39 25.2 4.26 25.29 4.17C25.39 4.07 25.51 4.02 25.65 4.02L28.33 4.02C28.42 4.02 28.51 4.05 28.58 4.09C28.66 4.14 28.72 4.21 28.77 4.29C28.81 4.36 28.83 4.45 28.83 4.54C28.82 4.64 28.79 4.72 28.74 4.8C28.64 4.96 27.73 6.45 29.08 7.53C29.16 7.59 29.22 7.68 29.25 7.78C29.28 7.88 29.27 7.99 29.24 8.08C29.2 8.18 29.14 8.27 29.06 8.33C28.97 8.39 28.87 8.42 28.77 8.42Z" fill="#95E1D3" fill-opacity="1.000000" fill-rule="nonzero"/>
	<path id="Vector" d="M25.65 26.32C25.51 26.32 25.39 26.26 25.29 26.17C25.2 26.07 25.15 25.95 25.15 25.82L25.15 3.63C25.15 3.5 25.2 3.37 25.29 3.27C25.39 3.18 25.51 3.13 25.65 3.13C25.78 3.13 25.9 3.18 26 3.27C26.09 3.37 26.15 3.5 26.15 3.63L26.15 25.82C26.15 25.95 26.09 26.07 26 26.17C25.9 26.26 25.78 26.32 25.65 26.32Z" fill="#95E1D3" fill-opacity="1.000000" fill-rule="nonzero"/>
	<path id="Vector" d="M3.29 29.92C2.47 29.92 1.67 29.63 1.04 29.1C0.95 29.02 0.85 28.93 0.76 28.84C0.2 28.28 -0.2 27.57 -0.39 26.8C-0.57 26.03 -0.55 25.22 -0.3 24.47C-0.06 23.71 0.39 23.04 0.99 22.52C1.59 22 2.32 21.66 3.1 21.53C3.13 21.52 3.16 21.52 3.19 21.52L22.26 21.52C22.39 21.52 22.51 21.57 22.6 21.65C22.69 21.74 22.75 21.85 22.76 21.98C22.77 22.1 22.73 22.23 22.65 22.33C22.58 22.43 22.46 22.49 22.34 22.51C21.74 22.61 21.18 22.88 20.72 23.27C20.25 23.67 19.91 24.19 19.73 24.77C19.54 25.35 19.52 25.97 19.66 26.57C19.8 27.16 20.11 27.7 20.54 28.13C20.61 28.2 20.68 28.27 20.76 28.33C21.19 28.69 21.73 28.9 22.3 28.92L22.36 28.92L22.39 28.92C22.78 28.91 23.16 28.82 23.52 28.66C24 28.43 24.41 28.08 24.7 27.63C24.99 27.18 25.15 26.66 25.15 26.12C25.15 25.99 25.2 25.86 25.29 25.77C25.39 25.68 25.51 25.62 25.65 25.62C25.78 25.62 25.9 25.68 26 25.77C26.09 25.86 26.15 25.99 26.15 26.12C26.15 26.85 25.94 27.56 25.55 28.17C25.16 28.78 24.6 29.26 23.95 29.56C23.47 29.79 22.94 29.91 22.42 29.92C22.4 29.92 22.38 29.92 22.36 29.92L3.34 29.92C3.32 29.92 3.31 29.92 3.29 29.92ZM3.23 22.52C2.63 22.63 2.07 22.89 1.62 23.29C1.16 23.7 0.83 24.21 0.64 24.79C0.46 25.37 0.44 25.99 0.59 26.58C0.73 27.17 1.04 27.71 1.47 28.13C1.54 28.2 1.61 28.27 1.69 28.34C2.13 28.7 2.68 28.91 3.25 28.92L3.29 28.92L19.92 28.92C19.89 28.89 19.86 28.87 19.83 28.84C19.02 28.03 18.57 26.93 18.57 25.79C18.57 24.64 19.02 23.55 19.83 22.74C19.9 22.66 19.98 22.59 20.06 22.52L3.23 22.52Z" fill="#95E1D3" fill-opacity="1.000000" fill-rule="nonzero"/>
	<path id="Vector" d="M29.82 8.42L28.9 8.42C28.76 8.42 28.64 8.37 28.54 8.27C28.45 8.18 28.4 8.05 28.4 7.92C28.4 7.79 28.45 7.66 28.54 7.56C28.64 7.47 28.76 7.42 28.9 7.42L29.82 7.42C30.54 7.42 31.25 7.21 31.85 6.81C32.45 6.41 32.92 5.84 33.2 5.17C33.48 4.51 33.56 3.78 33.43 3.06C33.3 2.35 32.96 1.7 32.45 1.18C31.95 0.66 31.3 0.31 30.6 0.15C29.89 0 29.16 0.06 28.48 0.32C27.81 0.58 27.23 1.04 26.81 1.63C26.4 2.22 26.17 2.92 26.15 3.64C26.14 3.71 26.13 3.77 26.1 3.83C26.08 3.89 26.04 3.95 25.99 3.99C25.94 4.04 25.89 4.07 25.83 4.1C25.76 4.12 25.7 4.13 25.63 4.13C25.57 4.13 25.5 4.11 25.44 4.09C25.38 4.06 25.33 4.02 25.28 3.97C25.24 3.93 25.2 3.87 25.18 3.81C25.16 3.75 25.14 3.68 25.15 3.62C25.17 2.7 25.46 1.81 25.99 1.05C26.52 0.3 27.26 -0.28 28.12 -0.61C28.97 -0.95 29.91 -1.02 30.81 -0.83C31.71 -0.64 32.53 -0.18 33.17 0.48C33.81 1.14 34.24 1.97 34.42 2.87C34.59 3.78 34.49 4.71 34.13 5.56C33.77 6.41 33.17 7.13 32.4 7.64C31.64 8.15 30.74 8.42 29.82 8.42L29.82 8.42Z" fill="#95E1D3" fill-opacity="1.000000" fill-rule="nonzero"/>
	<path id="Vector" d="M22.76 4.41L7.73 4.41C7.59 4.41 7.47 4.36 7.37 4.27C7.28 4.17 7.23 4.04 7.23 3.91C7.23 3.78 7.28 3.65 7.37 3.56C7.47 3.46 7.59 3.41 7.73 3.41L22.76 3.41C22.9 3.41 23.02 3.46 23.12 3.56C23.21 3.65 23.26 3.78 23.26 3.91C23.26 4.04 23.21 4.17 23.12 4.27C23.02 4.36 22.9 4.41 22.76 4.41Z" fill="#95E1D3" fill-opacity="1.000000" fill-rule="nonzero"/>
	<path id="Vector" d="M22.76 8.92L18.75 8.92C18.61 8.92 18.49 8.87 18.39 8.78C18.3 8.68 18.25 8.56 18.25 8.42C18.25 8.29 18.3 8.16 18.39 8.07C18.49 7.98 18.61 7.92 18.75 7.92L22.76 7.92C22.9 7.92 23.02 7.98 23.12 8.07C23.21 8.16 23.26 8.29 23.26 8.42C23.26 8.56 23.21 8.68 23.12 8.78C23.02 8.87 22.9 8.92 22.76 8.92Z" fill="#95E1D3" fill-opacity="1.000000" fill-rule="nonzero"/>
	<path id="Vector" d="M8.87 8.92L7.73 8.92C7.59 8.92 7.47 8.87 7.37 8.78C7.28 8.68 7.23 8.56 7.23 8.42C7.23 8.29 7.28 8.16 7.37 8.07C7.47 7.98 7.59 7.92 7.73 7.92L8.87 7.92C9 7.92 9.13 7.98 9.22 8.07C9.32 8.16 9.37 8.29 9.37 8.42C9.37 8.56 9.32 8.68 9.22 8.78C9.13 8.87 9 8.92 8.87 8.92Z" fill="#95E1D3" fill-opacity="1.000000" fill-rule="nonzero"/>
	<path id="Vector" d="M22.76 13.44L18.95 13.44C18.82 13.44 18.69 13.38 18.6 13.29C18.51 13.2 18.45 13.07 18.45 12.94C18.45 12.8 18.51 12.68 18.6 12.58C18.69 12.49 18.82 12.44 18.95 12.44L22.76 12.44C22.9 12.44 23.02 12.49 23.12 12.58C23.21 12.68 23.26 12.8 23.26 12.94C23.26 13.07 23.21 13.2 23.12 13.29C23.02 13.38 22.9 13.44 22.76 13.44Z" fill="#95E1D3" fill-opacity="1.000000" fill-rule="nonzero"/>
	<path id="Vector" d="M8.3 13.44L7.73 13.44C7.59 13.44 7.47 13.38 7.37 13.29C7.28 13.2 7.23 13.07 7.23 12.94C7.23 12.8 7.28 12.68 7.37 12.58C7.47 12.49 7.59 12.44 7.73 12.44L8.3 12.44C8.43 12.44 8.56 12.49 8.65 12.58C8.75 12.68 8.8 12.8 8.8 12.94C8.8 13.07 8.75 13.2 8.65 13.29C8.56 13.38 8.43 13.44 8.3 13.44Z" fill="#95E1D3" fill-opacity="1.000000" fill-rule="nonzero"/>
	<path id="Vector" d="M22.76 17.95L22.22 17.95C22.09 17.95 21.96 17.9 21.87 17.8C21.78 17.71 21.72 17.58 21.72 17.45C21.72 17.32 21.78 17.19 21.87 17.1C21.96 17 22.09 16.95 22.22 16.95L22.76 16.95C22.9 16.95 23.02 17 23.12 17.1C23.21 17.19 23.26 17.32 23.26 17.45C23.26 17.58 23.21 17.71 23.12 17.8C23.02 17.9 22.9 17.95 22.76 17.95Z" fill="#95E1D3" fill-opacity="1.000000" fill-rule="nonzero"/>
	<path id="Vector" d="M14.47 17.95L7.72 17.95C7.59 17.95 7.46 17.9 7.37 17.8C7.28 17.71 7.22 17.58 7.22 17.45C7.22 17.32 7.28 17.19 7.37 17.1C7.46 17 7.59 16.95 7.72 16.95L14.47 16.95C14.61 16.95 14.73 17 14.83 17.1C14.92 17.19 14.97 17.32 14.97 17.45C14.97 17.58 14.92 17.71 14.83 17.8C14.73 17.9 14.61 17.95 14.47 17.95Z" fill="#95E1D3" fill-opacity="1.000000" fill-rule="nonzero"/>
	<path id="Vector" d="M13.47 15.95C12.78 15.95 12.11 15.78 11.51 15.45C10.91 15.13 10.39 14.67 10.01 14.1C9.63 13.53 9.4 12.88 9.33 12.2C9.27 11.52 9.37 10.83 9.63 10.2C9.89 9.57 10.3 9.01 10.83 8.58C11.36 8.15 11.99 7.85 12.66 7.72C13.33 7.58 14.02 7.62 14.67 7.82C15.33 8.01 15.92 8.37 16.41 8.85C16.99 9.44 17.38 10.18 17.54 10.98C17.7 11.79 17.62 12.62 17.31 13.38C16.99 14.14 16.46 14.79 15.78 15.25C15.09 15.7 14.29 15.95 13.47 15.95ZM13.47 8.64C12.74 8.64 12.03 8.89 11.47 9.35C10.9 9.82 10.52 10.46 10.37 11.18C10.23 11.89 10.34 12.64 10.69 13.28C11.03 13.92 11.59 14.43 12.26 14.71C12.94 14.99 13.69 15.02 14.38 14.81C15.08 14.6 15.69 14.15 16.09 13.55C16.5 12.94 16.68 12.21 16.61 11.48C16.54 10.76 16.22 10.08 15.7 9.56C15.41 9.27 15.06 9.03 14.68 8.88C14.29 8.72 13.88 8.64 13.47 8.64L13.47 8.64Z" fill="#95E1D3" fill-opacity="1.000000" fill-rule="nonzero"/>
	<path id="Vector" d="M12.49 12.29C12.16 12.29 11.84 12.18 11.59 11.97C11.33 11.76 11.16 11.47 11.1 11.15C11.03 10.83 11.08 10.5 11.24 10.21C11.39 9.92 11.64 9.69 11.94 9.57C12.25 9.44 12.58 9.42 12.9 9.52C13.21 9.61 13.48 9.82 13.66 10.09C13.85 10.36 13.93 10.69 13.9 11.01C13.86 11.34 13.72 11.64 13.49 11.88C13.36 12.01 13.2 12.11 13.03 12.18C12.86 12.25 12.67 12.29 12.49 12.29ZM12.49 10.46C12.39 10.46 12.3 10.49 12.22 10.55C12.15 10.61 12.1 10.7 12.08 10.79C12.06 10.89 12.07 10.99 12.12 11.07C12.16 11.16 12.24 11.22 12.33 11.26C12.42 11.3 12.52 11.3 12.61 11.27C12.7 11.25 12.78 11.19 12.83 11.11C12.89 11.03 12.91 10.93 12.9 10.83C12.89 10.74 12.85 10.65 12.78 10.58C12.74 10.54 12.7 10.51 12.65 10.49C12.6 10.47 12.54 10.46 12.49 10.46Z" fill="#95E1D3" fill-opacity="1.000000" fill-rule="nonzero"/>
	<path id="Vector" d="M18.95 19.5C18.82 19.5 18.69 19.45 18.59 19.35L14.7 15.46C14.65 15.41 14.62 15.36 14.59 15.3C14.56 15.24 14.55 15.17 14.55 15.1C14.55 15.04 14.56 14.97 14.59 14.91C14.61 14.85 14.65 14.79 14.7 14.75C14.74 14.7 14.8 14.66 14.86 14.64C14.92 14.61 14.99 14.6 15.05 14.6C15.12 14.6 15.19 14.61 15.25 14.64C15.31 14.67 15.36 14.7 15.41 14.75L19.15 18.49L20.11 18.43L20.17 17.47L20.08 17.38L19.27 17.29C19.15 17.28 19.05 17.23 18.97 17.15C18.89 17.07 18.84 16.96 18.83 16.85L18.76 16.26L18.16 16.19C18.05 16.18 17.95 16.12 17.87 16.04C17.79 15.96 17.73 15.86 17.72 15.75L17.63 14.93L16.43 13.73C16.34 13.64 16.29 13.51 16.29 13.38C16.29 13.25 16.34 13.12 16.44 13.03C16.53 12.94 16.65 12.88 16.78 12.88C16.92 12.88 17.04 12.93 17.14 13.02L18.46 14.35C18.54 14.42 18.59 14.53 18.6 14.64L18.67 15.24L19.26 15.31C19.38 15.32 19.48 15.37 19.56 15.45C19.64 15.53 19.69 15.63 19.7 15.75L19.77 16.34L20.37 16.41C20.48 16.42 20.59 16.47 20.67 16.55L21.03 16.92C21.08 16.97 21.12 17.03 21.14 17.09C21.17 17.16 21.18 17.23 21.17 17.3L21.08 18.93C21.07 19.05 21.02 19.17 20.93 19.26C20.85 19.34 20.73 19.4 20.61 19.4L18.98 19.5L18.95 19.5Z" fill="#95E1D3" fill-opacity="1.000000" fill-rule="nonzero"/>
</svg>
